<svg xmlns="http://www.w3.org/2000/svg" xmlns:xlink="http://www.w3.org/1999/xlink" width="337" height="337" viewBox="0 0 337 337">
  <defs>
    <clipPath id="clip-path">
      <rect id="Rectangle_1" data-name="Rectangle 1" width="213.751" height="212.352" fill="#1f4ed8"/>
    </clipPath>
  </defs>
  <g id="Group_57" data-name="Group 57" transform="translate(-47 -258)">
    <g id="Ellipse_1" data-name="Ellipse 1" transform="translate(47 258)" fill="none" stroke="#1f4ed8" stroke-width="10">
      <circle cx="168.5" cy="168.5" r="168.5" stroke="none"/>
      <circle cx="168.5" cy="168.5" r="163.5" fill="none"/>
    </g>
    <g id="Group_2" data-name="Group 2" transform="translate(108.125 320.324)">
      <g id="Group_1" data-name="Group 1" clip-path="url(#clip-path)">
        <text id="I_am_Okay" data-name="I am Okay" transform="translate(5.875 199.758)" fill="#1f4ed8" font-size="45" font-family="FatFrank-Heavy, FatFrank" font-weight="800"><tspan x="0" y="0">I am O</tspan><tspan y="0" letter-spacing="-0.059em">k</tspan><tspan y="0">ay</tspan></text>
        <path id="Path_1" data-name="Path 1" d="M339.6,133.22a23.092,23.092,0,0,1-12.293-3.534,2.7,2.7,0,1,1,2.871-4.571,18.052,18.052,0,0,0,18.93-.052,2.7,2.7,0,1,1,2.9,4.554,23.067,23.067,0,0,1-12.4,3.6" transform="translate(-186.459 -71.28)" fill="#1f4ed8" fill-rule="evenodd"/>
        <path id="Path_2" data-name="Path 2" d="M316.417,83.122a2.705,2.705,0,0,1-2.119-1.036,2.733,2.733,0,0,1,.469-3.816c1.622-1.286,5.791-2.8,11.152-.339a2.7,2.7,0,0,1-2.257,4.905c-3.576-1.644-5.525-.345-5.6-.289a2.624,2.624,0,0,1-1.64.574Z" transform="translate(-179.414 -43.814)" fill="#1f4ed8" fill-rule="evenodd"/>
        <path id="Path_3" data-name="Path 3" d="M372.2,83.122a2.711,2.711,0,0,1-1.65-4.852c1.62-1.286,5.791-2.8,11.152-.339a2.7,2.7,0,0,1-2.257,4.905c-3.576-1.644-5.525-.345-5.6-.289a2.631,2.631,0,0,1-1.64.574Z" transform="translate(-211.318 -43.814)" fill="#1f4ed8" fill-rule="evenodd"/>
        <path id="Path_4" data-name="Path 4" d="M242.684,208.729a2.7,2.7,0,0,1-1.486-4.952c.6-.4,1.271-.787,2.045-1.2,9.787-5.132,19.9-10.443,30.106-16a2.7,2.7,0,0,1,2.583,4.742c-10.237,5.578-20.376,10.9-30.178,16.038-.569.3-1.1.6-1.582.922a2.693,2.693,0,0,1-1.484.447Zm100.151,50.231H268.553a2.7,2.7,0,0,1,0-5.4h71.584V217.01c0-6.945-1.848-8.164-7.193-10.666-6.883-3.21-13.81-7.075-20.508-10.816-2.549-1.423-5.083-2.838-7.6-4.2a2.7,2.7,0,1,1,2.583-4.741c2.528,1.376,5.078,2.8,7.644,4.233,6.613,3.694,13.452,7.512,20.16,10.64,6.227,2.914,10.3,5.569,10.3,15.557v39.253a2.693,2.693,0,0,1-2.7,2.7Z" transform="translate(-137.242 -106.514)" fill="#1f4ed8" fill-rule="evenodd"/>
        <path id="Path_5" data-name="Path 5" d="M425.884,312.046a2.7,2.7,0,0,1-2.7-2.7V281.779a2.7,2.7,0,1,1,5.4,0v27.568a2.7,2.7,0,0,1-2.7,2.7" transform="translate(-242.012 -159.601)" fill="#1f4ed8" fill-rule="evenodd"/>
        <path id="Path_6" data-name="Path 6" d="M320.026,174.574v7.6a13.047,13.047,0,1,0,26.094,0v-7.6a31.35,31.35,0,0,1-26.094,0m13.047,26.042a18.463,18.463,0,0,1-18.444-18.444V169.966a2.7,2.7,0,0,1,4.2-2.241,25.577,25.577,0,0,0,28.487,0,2.7,2.7,0,0,1,4.2,2.241v12.206a18.468,18.468,0,0,1-18.447,18.445" transform="translate(-179.931 -95.658)" fill="#1f4ed8" fill-rule="evenodd"/>
        <path id="Path_7" data-name="Path 7" d="M316.112,5.61a25.771,25.771,0,0,0-25.742,25.742V50.777a25.742,25.742,0,0,0,51.485,0V31.352A25.769,25.769,0,0,0,316.112,5.61m0,76.307a31.175,31.175,0,0,1-31.14-31.14V31.352a31.141,31.141,0,1,1,62.283,0V50.777a31.175,31.175,0,0,1-31.142,31.14" transform="translate(-162.97 -0.12)" fill="#1f4ed8" fill-rule="evenodd"/>
        <path id="Path_8" data-name="Path 8" d="M281.571,12.771c-7.29,3.224-12.332,10.055-12.332,17.94a18.656,18.656,0,0,0,3.648,11.035V34.318a31.073,31.073,0,0,1,8.682-21.547Zm-5.983,38.192a2.7,2.7,0,0,1-1.621-.542,24.593,24.593,0,0,1-10.125-19.71c0-13.96,12.2-25.314,27.186-25.314.691,0,1.373.026,2.049.072a2.7,2.7,0,0,1,.879,5.173,25.766,25.766,0,0,0-15.671,23.675V48.264a2.7,2.7,0,0,1-2.7,2.7" transform="translate(-150.886 -3.087)" fill="#1f4ed8" fill-rule="evenodd"/>
        <path id="Path_9" data-name="Path 9" d="M391.445,12.775a31.068,31.068,0,0,1,8.682,21.546v7.427a18.656,18.656,0,0,0,3.648-11.033c0-7.886-5.04-14.717-12.33-17.94Zm5.984,38.191a2.7,2.7,0,0,1-2.7-2.7V34.321a25.766,25.766,0,0,0-15.67-23.675,2.7,2.7,0,0,1,.882-5.173c.676-.045,1.359-.071,2.045-.071,14.992,0,27.187,11.357,27.187,25.314a24.6,24.6,0,0,1-10.124,19.709,2.71,2.71,0,0,1-1.62.541Z" transform="translate(-215.842 -3.089)" fill="#1f4ed8" fill-rule="evenodd"/>
        <path id="Path_10" data-name="Path 10" d="M423.24,90.916a5.385,5.385,0,0,0,.915.079,5.258,5.258,0,0,0,4.732-7.564,25.827,25.827,0,0,1-5.649,6.593v.892Zm.918,5.478a10.717,10.717,0,0,1-4.841-1.16,2.7,2.7,0,0,1-1.474-2.406v-4.11a2.692,2.692,0,0,1,1.078-2.157,20.067,20.067,0,0,0,6.707-8.705A2.7,2.7,0,0,1,429.5,76.5a10.663,10.663,0,0,1-5.337,19.893Z" transform="translate(-238.957 -43.542)" fill="#1f4ed8" fill-rule="evenodd"/>
        <path id="Path_11" data-name="Path 11" d="M263.86,83.432A5.259,5.259,0,0,0,268.592,91a5.194,5.194,0,0,0,.915-.08v-.893a25.777,25.777,0,0,1-5.648-6.59Zm4.732,12.961A10.664,10.664,0,0,1,263.25,76.5a2.7,2.7,0,0,1,3.866,1.357,20.1,20.1,0,0,0,6.709,8.7,2.7,2.7,0,0,1,1.078,2.157v4.11a2.7,2.7,0,0,1-1.474,2.406,10.552,10.552,0,0,1-4.839,1.16Z" transform="translate(-147.505 -43.541)" fill="#1f4ed8" fill-rule="evenodd"/>
        <path id="Path_12" data-name="Path 12" d="M18.28,265.079H135.788c-1.661-26.711-17.112-46.39-41.822-53.109a39.264,39.264,0,0,1-18.1,4.434,38.725,38.725,0,0,1-17.212-3.982c-23.827,7.144-38.739,26.653-40.369,52.658m120.327,5.4H15.458a2.7,2.7,0,0,1-2.7-2.77c.789-30.242,17.771-52.96,45.424-60.772a2.7,2.7,0,0,1,1.987.207A33.454,33.454,0,0,0,75.862,211a33.842,33.842,0,0,0,16.447-4.275,2.71,2.71,0,0,1,1.982-.257c22.1,5.637,46.06,24.683,47.015,61.233a2.7,2.7,0,0,1-2.7,2.77Z" transform="translate(-7.298 -118.03)" fill="#1f4ed8" fill-rule="evenodd"/>
        <path id="Path_13" data-name="Path 13" d="M117.393,238.229c-13.382,0-25.668-6.675-31.3-17a2.7,2.7,0,1,1,4.74-2.583c4.7,8.618,15.121,14.189,26.555,14.189,11.85,0,22.731-6.112,27.076-15.207a2.7,2.7,0,0,1,4.872,2.327c-5.223,10.931-18.06,18.278-31.947,18.278Z" transform="translate(-49.049 -123.576)" fill="#1f4ed8" fill-rule="evenodd"/>
        <path id="Path_14" data-name="Path 14" d="M69.792,320.17a2.7,2.7,0,0,1-2.7-2.7V295.983a2.7,2.7,0,0,1,5.4,0v21.488a2.7,2.7,0,0,1-2.7,2.7" transform="translate(-38.369 -167.724)" fill="#1f4ed8" fill-rule="evenodd"/>
        <path id="Path_15" data-name="Path 15" d="M248.778,320.17a2.7,2.7,0,0,1-2.7-2.7V295.983a2.7,2.7,0,0,1,5.4,0v21.488a2.7,2.7,0,0,1-2.7,2.7" transform="translate(-140.728 -167.724)" fill="#1f4ed8" fill-rule="evenodd"/>
        <path id="Path_16" data-name="Path 16" d="M106.632,42.82c-19.117,0-34.671,16.05-34.671,35.779s15.553,35.778,34.671,35.778S141.3,98.327,141.3,78.6,125.749,42.82,106.632,42.82m0,76.954c-22.094,0-40.069-18.471-40.069-41.176s17.975-41.177,40.069-41.177S146.7,55.893,146.7,78.6s-17.974,41.176-40.068,41.176" transform="translate(-38.066 -21.4)" fill="#1f4ed8" fill-rule="evenodd"/>
        <path id="Path_17" data-name="Path 17" d="M69.3,84.628a2.7,2.7,0,0,1-.6-5.332c31.087-7.077,45.356-23.473,51.1-32.618a2.7,2.7,0,1,1,4.571,2.87c-6.183,9.852-21.483,27.5-54.469,35.013a2.672,2.672,0,0,1-.6.068" transform="translate(-38.087 -25.971)" fill="#1f4ed8" fill-rule="evenodd"/>
        <path id="Path_18" data-name="Path 18" d="M198.419,105.955a2.734,2.734,0,0,1-.854-.138c-14.4-4.806-26.979-15.128-34.993-22.94a2.7,2.7,0,0,1,3.77-3.865c7.609,7.418,19.5,17.2,32.934,21.684a2.7,2.7,0,0,1-.855,5.259Z" transform="translate(-92.505 -44.747)" fill="#1f4ed8" fill-rule="evenodd"/>
        <path id="Path_19" data-name="Path 19" d="M231.4,157.291a2.7,2.7,0,0,1-.618-5.327c9.863-2.324,10.239-7.264,10.247-7.472a3.817,3.817,0,0,0-.746-2.736c-.605-.564-1.838-.792-3.473-.639a2.7,2.7,0,0,1-.5-5.376c3.279-.3,5.852.388,7.65,2.063a8.617,8.617,0,0,1,2.466,6.8c0,.308-.117,9.241-14.408,12.611a2.576,2.576,0,0,1-.62.077Z" transform="translate(-130.79 -77.588)" fill="#1f4ed8" fill-rule="evenodd"/>
        <path id="Path_20" data-name="Path 20" d="M65.224,157.287a2.767,2.767,0,0,1-.622-.072c-14.291-3.37-14.409-12.3-14.405-12.682a8.548,8.548,0,0,1,2.466-6.731c1.8-1.676,4.375-2.367,7.651-2.063a2.7,2.7,0,0,1-.5,5.377c-1.636-.152-2.868.075-3.473.639a3.812,3.812,0,0,0-.748,2.738c.009.206.385,5.146,10.245,7.468a2.7,2.7,0,0,1-.616,5.327Z" transform="translate(-28.705 -77.586)" fill="#1f4ed8" fill-rule="evenodd"/>
        <path id="Path_21" data-name="Path 21" d="M133.283,16.021A38.778,38.778,0,0,1,148,18.883C147.826,11.42,141.291,5.4,133.283,5.4s-14.542,6.022-14.716,13.485a38.725,38.725,0,0,1,14.716-2.862m16.973,9.588A2.712,2.712,0,0,1,149,25.3a33.784,33.784,0,0,0-31.433,0,2.7,2.7,0,0,1-3.878-1.749,18.5,18.5,0,0,1-.521-4.363C113.167,8.609,122.191,0,133.285,0S153.4,8.608,153.4,19.187a18.43,18.43,0,0,1-.524,4.363,2.707,2.707,0,0,1-2.621,2.059Z" transform="translate(-64.718)" fill="#1f4ed8" fill-rule="evenodd"/>
        <path id="Path_22" data-name="Path 22" d="M143.493,184.628a24.89,24.89,0,0,1-13.257-3.808,2.7,2.7,0,0,1,2.871-4.572,19.893,19.893,0,0,0,20.864-.058,2.7,2.7,0,1,1,2.9,4.556,24.879,24.879,0,0,1-13.375,3.883Z" transform="translate(-73.757 -100.519)" fill="#1f4ed8" fill-rule="evenodd"/>
        <path id="Path_23" data-name="Path 23" d="M127.417,139.249A2.685,2.685,0,0,1,126.29,139c-4.034-1.858-6.245-.356-6.336-.294a2.734,2.734,0,0,1-3.749-.57,2.662,2.662,0,0,1,.451-3.7c1.719-1.364,6.161-2.973,11.891-.338a2.7,2.7,0,0,1-1.129,5.153Z" transform="translate(-66.142 -75.879)" fill="#1f4ed8" fill-rule="evenodd"/>
        <path id="Path_24" data-name="Path 24" d="M188.118,139.25a2.685,2.685,0,0,1-1.127-.247c-4.062-1.868-6.26-.354-6.281-.337a2.7,2.7,0,1,1-3.354-4.23c1.721-1.365,6.16-2.973,11.891-.337a2.7,2.7,0,0,1-1.129,5.151Z" transform="translate(-100.842 -75.88)" fill="#1f4ed8" fill-rule="evenodd"/>
      </g>
    </g>
  </g>
</svg>
