<svg xmlns="http://www.w3.org/2000/svg" xmlns:xlink="http://www.w3.org/1999/xlink" width="361.854" height="139.295" viewBox="0 0 361.854 139.295">
  <defs>
    <clipPath id="clip-path">
      <rect id="Rectangle_28" data-name="Rectangle 28" width="361.854" height="139.295" fill="#1f4ed8"/>
    </clipPath>
  </defs>
  <g id="Group_54" data-name="Group 54" transform="translate(0 0)">
    <g id="Group_53" data-name="Group 53" transform="translate(0 0)" clip-path="url(#clip-path)">
      <path id="Path_101" data-name="Path 101" d="M81.395,38.853a18.569,18.569,0,0,1-9.885-2.841,2.171,2.171,0,0,1,2.309-3.676,14.516,14.516,0,0,0,15.223-.041,2.17,2.17,0,1,1,2.327,3.663,18.559,18.559,0,0,1-9.974,2.9" transform="translate(37.356 16.933)" fill="#1f4ed8" fill-rule="evenodd"/>
      <path id="Path_102" data-name="Path 102" d="M69.886,26.382a2.18,2.18,0,0,1-1.326-3.9c1.3-1.034,4.656-2.254,8.967-.271a2.171,2.171,0,1,1-1.814,3.944c-2.876-1.322-4.443-.278-4.506-.233a2.11,2.11,0,0,1-1.319.462Z" transform="translate(35.888 11.206)" fill="#1f4ed8" fill-rule="evenodd"/>
      <path id="Path_103" data-name="Path 103" d="M82.439,26.382a2.18,2.18,0,0,1-1.326-3.9c1.3-1.034,4.656-2.254,8.967-.271a2.171,2.171,0,1,1-1.816,3.944c-2.875-1.322-4.441-.278-4.5-.233a2.116,2.116,0,0,1-1.319.462Z" transform="translate(42.54 11.206)" fill="#1f4ed8" fill-rule="evenodd"/>
      <path id="Path_104" data-name="Path 104" d="M53.3,63.894a2.17,2.17,0,0,1-1.195-3.982c.485-.32,1.022-.633,1.645-.961,7.87-4.128,16.006-8.4,24.208-12.868a2.171,2.171,0,0,1,2.078,3.813c-8.233,4.486-16.384,8.762-24.266,12.9-.457.242-.883.485-1.273.742a2.173,2.173,0,0,1-1.193.36Zm80.533,40.391H74.1a2.17,2.17,0,1,1,0-4.34h57.562V70.552c0-5.584-1.486-6.565-5.785-8.577-5.534-2.581-11.1-5.688-16.489-8.7C107.34,52.133,105.3,51,103.281,49.9a2.17,2.17,0,1,1,2.076-3.811c2.033,1.106,4.085,2.251,6.147,3.4,5.316,2.97,10.818,6.04,16.211,8.555,5.006,2.342,8.286,4.478,8.286,12.51v31.564a2.166,2.166,0,0,1-2.168,2.168Z" transform="translate(27.094 24.28)" fill="#1f4ed8" fill-rule="evenodd"/>
      <path id="Path_105" data-name="Path 105" d="M94.523,93.215a2.171,2.171,0,0,1-2.171-2.171V68.877a2.171,2.171,0,0,1,4.342,0V91.044a2.171,2.171,0,0,1-2.171,2.171" transform="translate(48.939 35.348)" fill="#1f4ed8" fill-rule="evenodd"/>
      <path id="Path_106" data-name="Path 106" d="M72.265,47.422v6.11a10.491,10.491,0,1,0,20.981,0v-6.11a25.206,25.206,0,0,1-20.981,0M82.756,68.363A14.846,14.846,0,0,1,67.925,53.532V43.716a2.17,2.17,0,0,1,3.378-1.8,20.564,20.564,0,0,0,22.907,0,2.17,2.17,0,0,1,3.378,1.8v9.814A14.848,14.848,0,0,1,82.756,68.363" transform="translate(35.995 22.016)" fill="#1f4ed8" fill-rule="evenodd"/>
      <path id="Path_107" data-name="Path 107" d="M86.292,8.3A20.724,20.724,0,0,0,65.592,29v15.62a20.7,20.7,0,0,0,41.4,0V29a20.721,20.721,0,0,0-20.7-20.7m0,61.361a25.068,25.068,0,0,1-25.04-25.04V29a25.041,25.041,0,1,1,50.082,0v15.62a25.068,25.068,0,0,1-25.042,25.04" transform="translate(32.459 2.096)" fill="#1f4ed8" fill-rule="evenodd"/>
      <path id="Path_108" data-name="Path 108" d="M70.754,11.053c-5.863,2.592-9.917,8.086-9.917,14.426a15,15,0,0,0,2.934,8.874V28.378a24.989,24.989,0,0,1,6.981-17.326Zm-4.812,30.71a2.159,2.159,0,0,1-1.3-.436A19.778,19.778,0,0,1,56.5,25.479c0-11.225,9.808-20.356,21.861-20.356.555,0,1.1.021,1.648.058a2.17,2.17,0,0,1,.707,4.16,20.721,20.721,0,0,0-12.6,19.038V39.592a2.167,2.167,0,0,1-2.168,2.171" transform="translate(29.939 2.714)" fill="#1f4ed8" fill-rule="evenodd"/>
      <path id="Path_109" data-name="Path 109" d="M93.33,11.052a24.983,24.983,0,0,1,6.981,17.326V34.35a15.007,15.007,0,0,0,2.934-8.872c0-6.342-4.053-11.834-9.915-14.426m4.812,30.71a2.2,2.2,0,0,1-.97-.228,2.172,2.172,0,0,1-1.2-1.943V28.379A20.719,20.719,0,0,0,83.37,9.34a2.17,2.17,0,0,1,.71-4.16c.543-.037,1.092-.057,1.645-.057,12.054,0,21.861,9.132,21.861,20.356a19.781,19.781,0,0,1-8.141,15.848,2.176,2.176,0,0,1-1.3.434Z" transform="translate(43.483 2.715)" fill="#1f4ed8" fill-rule="evenodd"/>
      <path id="Path_110" data-name="Path 110" d="M95.49,32.925a4.357,4.357,0,0,0,.736.064,4.228,4.228,0,0,0,3.8-6.083,20.771,20.771,0,0,1-4.544,5.3v.718Zm.737,4.4a8.613,8.613,0,0,1-3.892-.933,2.169,2.169,0,0,1-1.186-1.934v-3.3a2.163,2.163,0,0,1,.867-1.735,16.148,16.148,0,0,0,5.393-7,2.169,2.169,0,0,1,3.109-1.091,8.573,8.573,0,0,1-4.29,16Z" transform="translate(48.302 11.15)" fill="#1f4ed8" fill-rule="evenodd"/>
      <path id="Path_111" data-name="Path 111" d="M59.936,26.909a4.227,4.227,0,0,0,3.8,6.081,4.05,4.05,0,0,0,.736-.064v-.718a20.762,20.762,0,0,1-4.542-5.3Zm3.8,10.422a8.575,8.575,0,0,1-4.294-16,2.17,2.17,0,0,1,3.109,1.091,16.158,16.158,0,0,0,5.395,7,2.169,2.169,0,0,1,.867,1.733v3.306A2.171,2.171,0,0,1,67.631,36.4a8.487,8.487,0,0,1-3.892.933Z" transform="translate(29.234 11.149)" fill="#1f4ed8" fill-rule="evenodd"/>
      <path id="Path_112" data-name="Path 112" d="M4.44,97.543H98.927c-1.336-21.479-13.76-37.3-33.629-42.706A31.568,31.568,0,0,1,50.741,58.4,31.15,31.15,0,0,1,36.9,55.2C17.741,60.946,5.749,76.634,4.44,97.543m96.757,4.34H2.169A2.171,2.171,0,0,1,0,99.656C.636,75.338,14.291,57.069,36.527,50.789a2.174,2.174,0,0,1,1.6.165,26.884,26.884,0,0,0,12.617,3.107,27.2,27.2,0,0,0,13.225-3.438,2.181,2.181,0,0,1,1.594-.207c17.77,4.533,37.035,19.848,37.8,49.239a2.174,2.174,0,0,1-2.168,2.228Z" transform="translate(0 26.681)" fill="#1f4ed8" fill-rule="evenodd"/>
      <path id="Path_113" data-name="Path 113" d="M41.858,70.337c-10.76,0-20.64-5.367-25.166-13.674A2.17,2.17,0,1,1,20.5,54.587C24.281,61.518,32.664,66,41.857,66c9.53,0,18.279-4.916,21.774-12.229a2.17,2.17,0,1,1,3.917,1.871c-4.2,8.789-14.522,14.7-25.689,14.7Z" transform="translate(8.705 27.837)" fill="#1f4ed8" fill-rule="evenodd"/>
      <path id="Path_114" data-name="Path 114" d="M14.4,91.522a2.171,2.171,0,0,1-2.171-2.171V72.072a2.171,2.171,0,0,1,4.342,0V89.351A2.17,2.17,0,0,1,14.4,91.522" transform="translate(6.478 37.042)" fill="#1f4ed8" fill-rule="evenodd"/>
      <path id="Path_115" data-name="Path 115" d="M54.671,91.522A2.171,2.171,0,0,1,52.5,89.351V72.072a2.171,2.171,0,0,1,4.342,0V89.351a2.171,2.171,0,0,1-2.171,2.171" transform="translate(27.821 37.042)" fill="#1f4ed8" fill-rule="evenodd"/>
      <path id="Path_116" data-name="Path 116" d="M44.327,16.672c-15.373,0-27.88,12.9-27.88,28.77s12.507,28.769,27.88,28.769S72.205,61.3,72.205,45.442,59.7,16.672,44.327,16.672m0,61.879c-17.765,0-32.22-14.852-32.22-33.111S26.562,12.33,44.327,12.33s32.22,14.854,32.22,33.111S62.093,78.551,44.327,78.551" transform="translate(6.416 6.533)" fill="#1f4ed8" fill-rule="evenodd"/>
      <path id="Path_117" data-name="Path 117" d="M14.284,45.661a2.171,2.171,0,0,1-.48-4.287c25-5.691,36.472-18.876,41.088-26.23a2.171,2.171,0,0,1,3.676,2.309c-4.972,7.922-17.274,22.117-43.8,28.154a2.116,2.116,0,0,1-.485.055" transform="translate(6.42 7.486)" fill="#1f4ed8" fill-rule="evenodd"/>
      <path id="Path_118" data-name="Path 118" d="M63.008,43.8a2.238,2.238,0,0,1-.687-.11C50.74,39.822,40.627,31.522,34.183,25.24a2.17,2.17,0,1,1,3.031-3.107C43.332,28.1,52.894,35.966,63.7,39.569A2.17,2.17,0,0,1,63.01,43.8Z" transform="translate(17.767 11.401)" fill="#1f4ed8" fill-rule="evenodd"/>
      <path id="Path_119" data-name="Path 119" d="M50.761,51.822a2.171,2.171,0,0,1-.5-4.284c7.931-1.87,8.233-5.841,8.24-6.008a3.068,3.068,0,0,0-.6-2.2,3.759,3.759,0,0,0-2.792-.514,2.171,2.171,0,1,1-.4-4.324c2.638-.243,4.706.312,6.152,1.66a6.925,6.925,0,0,1,1.983,5.469c0,.248-.093,7.431-11.586,10.14a2.061,2.061,0,0,1-.5.061Z" transform="translate(25.749 18.248)" fill="#1f4ed8" fill-rule="evenodd"/>
      <path id="Path_120" data-name="Path 120" d="M20.509,51.82a2.176,2.176,0,0,1-.5-.058C8.518,49.053,8.423,41.87,8.426,41.564a6.877,6.877,0,0,1,1.983-5.413c1.446-1.346,3.517-1.9,6.152-1.658a2.171,2.171,0,0,1-.4,4.324,3.761,3.761,0,0,0-2.794.514,3.068,3.068,0,0,0-.6,2.2c.008.165.311,4.137,8.239,6a2.171,2.171,0,0,1-.494,4.284Z" transform="translate(4.464 18.248)" fill="#1f4ed8" fill-rule="evenodd"/>
      <path id="Path_121" data-name="Path 121" d="M38.769,16.792a31.2,31.2,0,0,1,11.834,2.3c-.139-6-5.395-10.843-11.834-10.843S27.076,13.093,26.936,19.093a31.135,31.135,0,0,1,11.832-2.3M52.417,24.5a2.176,2.176,0,0,1-1.01-.249,27.171,27.171,0,0,0-25.276,0,2.17,2.17,0,0,1-3.118-1.408,14.819,14.819,0,0,1-.421-3.507c0-8.506,7.258-15.429,16.177-15.429S54.948,10.83,54.948,19.338a14.76,14.76,0,0,1-.422,3.507A2.173,2.173,0,0,1,52.419,24.5Z" transform="translate(11.972 2.071)" fill="#1f4ed8" fill-rule="evenodd"/>
      <path id="Path_122" data-name="Path 122" d="M37.826,50.584a20.012,20.012,0,0,1-10.66-3.063,2.17,2.17,0,1,1,2.309-3.675A16,16,0,0,0,46.252,43.8a2.171,2.171,0,1,1,2.33,3.664,20.021,20.021,0,0,1-10.755,3.123Z" transform="translate(13.857 23.029)" fill="#1f4ed8" fill-rule="evenodd"/>
      <path id="Path_123" data-name="Path 123" d="M32.611,39.045a2.167,2.167,0,0,1-.906-.2c-3.243-1.493-5.021-.286-5.095-.237a2.2,2.2,0,0,1-3.015-.457,2.141,2.141,0,0,1,.364-2.979c1.382-1.1,4.954-2.391,9.56-.272a2.171,2.171,0,0,1-.907,4.143Z" transform="translate(12.269 17.892)" fill="#1f4ed8" fill-rule="evenodd"/>
      <path id="Path_124" data-name="Path 124" d="M46.283,39.045a2.167,2.167,0,0,1-.906-.2c-3.266-1.5-5.033-.285-5.052-.271a2.171,2.171,0,0,1-2.7-3.4c1.385-1.1,4.954-2.39,9.562-.271a2.17,2.17,0,0,1-.907,4.141Z" transform="translate(19.505 17.892)" fill="#1f4ed8" fill-rule="evenodd"/>
      <text id="I_am_" data-name="I am " transform="translate(181.554 56.709)" fill="#1f4ed8" font-size="65" font-family="GasoekOne-Regular, Gasoek One"><tspan x="0" y="0">I am </tspan></text>
      <text id="O" transform="translate(181.554 122.852)" fill="#1f4ed8" font-size="65" font-family="GasoekOne-Regular, Gasoek One"><tspan x="0" y="0">O</tspan></text>
      <text id="k" transform="translate(232.748 122.852)" fill="#1f4ed8" font-size="65" font-family="GasoekOne-Regular, Gasoek One"><tspan x="0" y="0">k</tspan></text>
      <text id="a" transform="translate(275.805 122.852)" fill="#1f4ed8" font-size="65" font-family="GasoekOne-Regular, Gasoek One"><tspan x="0" y="0">a</tspan></text>
      <text id="y" transform="translate(315.161 122.852)" fill="#1f4ed8" font-size="65" font-family="GasoekOne-Regular, Gasoek One"><tspan x="0" y="0">y</tspan></text>
    </g>
  </g>
</svg>
