<svg xmlns="http://www.w3.org/2000/svg" xmlns:xlink="http://www.w3.org/1999/xlink" width="163.005" height="36.869" viewBox="0 0 163.005 36.869">
  <defs>
    <clipPath id="clip-path">
      <path id="Path_1345" data-name="Path 1345" d="M0-491.5H163.005v36.869H0Z" transform="translate(0 491.496)" fill="none"/>
    </clipPath>
  </defs>
  <g id="Group_953" data-name="Group 953" transform="translate(-849 1117.496)">
    <g id="Group_952" data-name="Group 952" transform="translate(849 -1117.496)" clip-path="url(#clip-path)">
      <g id="Group_933" data-name="Group 933" transform="translate(0.257 0)">
        <path id="Path_1326" data-name="Path 1326" d="M-170.392-37.527c-.622.574-1.307,1.07-1.98,1.581-.762.554-1.569,1.043-2.342,1.579-.878.566-1.766,1.114-2.626,1.7-.554.377-1.115.745-1.649,1.15-.532.387-1.061.779-1.56,1.208a17.983,17.983,0,0,0-1.82,1.709,6.862,6.862,0,0,0-.817,1.008,11.755,11.755,0,0,0-.749,3.094,13.01,13.01,0,0,1,2.656-3.574l.016.008a22.419,22.419,0,0,1,1.911-1.647c.548-.411,1.1-.822,1.661-1.211s1.121-.758,1.686-1.13c.878-.556,1.758-1.115,2.609-1.712l.028.014c.761-.515,1.524-1.028,2.241-1.6a2.4,2.4,0,0,0,.344-.238,10.339,10.339,0,0,0,1.85-1.856,4.215,4.215,0,0,0-.984-.436,1.55,1.55,0,0,0-.476.351m-.979.141a10.9,10.9,0,0,0,3.641-3.184,4.032,4.032,0,0,1-.683,2.778,11.924,11.924,0,0,1-2.917,2.863c-2.187,1.613-4.554,2.96-6.765,4.539a21.992,21.992,0,0,0-4.153,3.661,9.661,9.661,0,0,0-1.963,3.586,13.376,13.376,0,0,1,.672-4.064,10.782,10.782,0,0,1,1.971-3.487,15.231,15.231,0,0,1,3.388-2.909c2.175-1.427,4.574-2.457,6.808-3.782" transform="translate(184.21 40.57)" fill="#52823a"/>
      </g>
      <g id="Group_934" data-name="Group 934" transform="translate(2.603 0.529)">
        <path id="Path_1327" data-name="Path 1327" d="M-217.414,0a7.832,7.832,0,0,1,.456,4.5,8.422,8.422,0,0,1-1.581,3.134,27.269,27.269,0,0,1-4.776,4.595c-2.189,1.758-4.5,3.379-6.512,5.344a12.308,12.308,0,0,0-2.882,4,5.742,5.742,0,0,0,.025,4.362,19.934,19.934,0,0,0,3.558,5.736,24.886,24.886,0,0,1-2.765-2.622A11.527,11.527,0,0,1-233.8,26.44a9.579,9.579,0,0,1-1.23-3.568,4.984,4.984,0,0,1,.687-2.775,18.045,18.045,0,0,1,4.244-4.824c1.976-1.671,4.037-3.238,6.132-4.756A25.861,25.861,0,0,0-219.7,6.85a6.461,6.461,0,0,0,1.143-1.707A20.629,20.629,0,0,0-217.414,0" transform="translate(235.045)" fill="#e21e25"/>
      </g>
      <g id="Group_935" data-name="Group 935" transform="translate(12.095 2.692)">
        <path id="Path_1328" data-name="Path 1328" d="M-24.41-4.329a1.551,1.551,0,0,1,.476-.351,4.215,4.215,0,0,1,.984.436A10.339,10.339,0,0,1-24.8-2.388a2.4,2.4,0,0,1-.344.238,3.53,3.53,0,0,0-1.245-.6c.672-.512,1.358-1.007,1.98-1.581" transform="translate(26.39 4.68)" fill="#628946"/>
      </g>
      <g id="Group_936" data-name="Group 936" transform="translate(26.595 2.756)">
        <path id="Path_1329" data-name="Path 1329" d="M-1624.174-282.524q.548,0,1.1,0c.416.941.828,1.883,1.244,2.824q.639-1.41,1.273-2.822c.359,0,.719,0,1.079,0v4.6c-.353.007-.7.005-1.055,0,0-.744,0-1.489,0-2.233-.334.744-.662,1.491-1,2.234h-.6q-.505-1.124-1.007-2.25c0,.75,0,1.5,0,2.251h-1.031q0-2.3,0-4.606m-4.006,0h3.374c0,.334,0,.668,0,1h-1.161q0,1.8,0,3.606h-1.05q0-1.8,0-3.606c-.388,0-.775,0-1.161,0,0-.334,0-.668,0-1m-70.174-10.834a4.539,4.539,0,0,0-2.987,1.95,10.636,10.636,0,0,0-1.636,4.13,8.632,8.632,0,0,0-.116,3.322,2.83,2.83,0,0,0,1.129,1.842,3.6,3.6,0,0,0,2.532.413,4.471,4.471,0,0,0,2.745-1.669,10.21,10.21,0,0,0,1.872-4.556,8.079,8.079,0,0,0,.035-3.244,2.864,2.864,0,0,0-1.153-1.78,3.507,3.507,0,0,0-2.421-.408m.076-3.753a10.911,10.911,0,0,1,5.174.585,6.043,6.043,0,0,1,2.941,2.466,7.9,7.9,0,0,1,.969,4.557,13.569,13.569,0,0,1-2.619,7.246,10.888,10.888,0,0,1-4.9,3.653,12.432,12.432,0,0,1-5.289.695,8.3,8.3,0,0,1-3.767-1.154,5.837,5.837,0,0,1-2.189-2.471,8.382,8.382,0,0,1-.659-4.231,13.626,13.626,0,0,1,2.541-6.933,10.929,10.929,0,0,1,4.735-3.661,11.644,11.644,0,0,1,3.062-.753m-33.892.386a9.7,9.7,0,0,1,3.782-.416,3.949,3.949,0,0,1,2.437,1.057,4.271,4.271,0,0,1,1.083,2.67,15.032,15.032,0,0,1-.415,4.363q-1.148,5.4-2.3,10.8h-5.46q1.161-5.473,2.325-10.944a3.077,3.077,0,0,0-.161-2.046,1.685,1.685,0,0,0-1.263-.8,4.585,4.585,0,0,0-2.867.574,6.229,6.229,0,0,0-2.11,2.014,1.145,1.145,0,0,0-.2.386q-1.15,5.4-2.3,10.811-2.73,0-5.459,0,1.966-9.264,3.937-18.527,2.73,0,5.46,0c-.133.638-.271,1.274-.405,1.911a15.967,15.967,0,0,1,3.907-1.854m75.836,4.793a5.178,5.178,0,0,0-2.19,2.468,9.728,9.728,0,0,0-.842,3.4,3.66,3.66,0,0,0,.644,2.557,2.762,2.762,0,0,0,2.186.866,10.669,10.669,0,0,0,3.821-.806q.862-4.061,1.725-8.122a8.19,8.19,0,0,0-3.149-.815,4.127,4.127,0,0,0-2.194.452m-1.541-4.845a8.446,8.446,0,0,1,4.573-.248,5.935,5.935,0,0,1,3.111,1.722c.392-.487.746-1.011,1.162-1.474,1.518-.014,3.038,0,4.557-.006q-1.525,7.094-3.053,14.19a3.788,3.788,0,0,0-.029.732q0,1.8,0,3.607-2.266,0-4.531,0-.384-.738-.767-1.477a10.311,10.311,0,0,1-3.987,1.645,8.63,8.63,0,0,1-4.309-.2,5.407,5.407,0,0,1-2.61-1.83,6.817,6.817,0,0,1-1.286-3.627,14.717,14.717,0,0,1,.691-5.319,13.231,13.231,0,0,1,3.255-5.687,8.671,8.671,0,0,1,3.223-2.027m19.482-.006q.82-2.5,1.632-4.994h4.889q-.528,2.5-1.06,4.994c1.383,0,2.767,0,4.151,0q-.477,2.25-.956,4.5c-1.384,0-2.768,0-4.151,0q-.855,4.015-1.707,8.03a1.789,1.789,0,0,0,.142,1.34,1.6,1.6,0,0,0,1.206.615,9.434,9.434,0,0,0,2.427-.184q-.439,2.133-.882,4.267a12.8,12.8,0,0,1-2.9.455,17.191,17.191,0,0,1-1.8-.1,6.193,6.193,0,0,1-2.26-.545,2.814,2.814,0,0,1-1.256-1.209,4.654,4.654,0,0,1-.438-2.244,23.913,23.913,0,0,1,.7-4.269q.653-3.076,1.307-6.153c-.9,0-1.8,0-2.694,0q.476-2.25.956-4.5c.9,0,1.8,0,2.694,0m-41.141,5.5a7.013,7.013,0,0,0-1.874,3.547,7.459,7.459,0,0,0-.193,2.89,2.593,2.593,0,0,0,.945,1.683,3.19,3.19,0,0,0,2.064.52,11.676,11.676,0,0,0,3.709-.8q.86-4.06,1.725-8.119a8.87,8.87,0,0,0-3.337-.821,4.082,4.082,0,0,0-3.04,1.1m9.256-13.822q2.7,0,5.409,0-2.373,11.061-4.742,22.124a3.066,3.066,0,0,0-.117.746c0,1.328,0,2.655,0,3.983h-4.527c-.257-.492-.511-.986-.767-1.479a10.311,10.311,0,0,1-3.932,1.636,8.725,8.725,0,0,1-4.287-.165,5.444,5.444,0,0,1-2.638-1.792,6.736,6.736,0,0,1-1.327-3.6,14.479,14.479,0,0,1,.645-5.279,13.428,13.428,0,0,1,3.2-5.724,8.865,8.865,0,0,1,2.855-1.942,8.4,8.4,0,0,1,5.063-.419,5.937,5.937,0,0,1,3.083,1.71q1.043-4.9,2.084-9.8m-79.9,0q3.316,0,6.632,0-2.854,13.427-5.708,26.854h-6.632q2.851-13.428,5.708-26.855m35.746.977a8.4,8.4,0,0,1,4.488-1.293,10.66,10.66,0,0,1,3.741.527q-.773,1.987-1.548,3.974a5.584,5.584,0,0,0-3.073.171,2.453,2.453,0,0,0-1.307,1.714c-.172.75-.322,1.5-.485,2.257h3.922q-.478,2.25-.957,4.5h-3.922l-4.451,20.96c-1.82,0-3.639,0-5.459,0q2.221-10.48,4.449-20.959-1.347,0-2.694,0,.475-2.25.956-4.5c.9,0,1.8,0,2.7,0a23.622,23.622,0,0,1,1.057-4.083,7.169,7.169,0,0,1,2.587-3.266" transform="translate(1755.89 305.436)" fill="#fff"/>
      </g>
      <g id="Group_937" data-name="Group 937" transform="translate(0 2.923)">
        <path id="Path_1330" data-name="Path 1330" d="M-232.162,0a15.158,15.158,0,0,1-.728,2.348,10.65,10.65,0,0,1-2.433,3.114,42.436,42.436,0,0,1-3.5,2.876c-2.05,1.538-4.1,3.076-6.053,4.742a18.05,18.05,0,0,0-4.076,4.628,5.064,5.064,0,0,0-.739,2.851,9.63,9.63,0,0,0,1.244,3.6,10.746,10.746,0,0,0,1.693,2.358,27.277,27.277,0,0,0,2.938,2.839A23.3,23.3,0,0,1-249,24.646,8.809,8.809,0,0,1-250.99,19.7v-.625a9.762,9.762,0,0,1,2.379-5.448,30.9,30.9,0,0,1,5.2-4.856c2.687-2.084,5.548-3.93,8.237-6.012A21.157,21.157,0,0,0-232.162,0" transform="translate(250.99)" fill="#5a3c84"/>
      </g>
      <g id="Group_938" data-name="Group 938" transform="translate(9.753 4.625)">
        <path id="Path_1331" data-name="Path 1331" d="M0-19.471c.773-.536,1.58-1.025,2.342-1.579a3.53,3.53,0,0,1,1.245.6c-.716.576-1.48,1.088-2.241,1.6l-.028-.014A10.323,10.323,0,0,0,0-19.471" transform="translate(0 21.05)" fill="#6c904f"/>
      </g>
      <g id="Group_939" data-name="Group 939" transform="translate(7.127 6.204)">
        <path id="Path_1332" data-name="Path 1332" d="M0-21.016c.86-.59,1.749-1.139,2.626-1.7a10.323,10.323,0,0,1,1.319.608c-.851.6-1.731,1.156-2.609,1.712A3.376,3.376,0,0,0,0-21.016" transform="translate(0 22.72)" fill="#759458"/>
      </g>
      <g id="Group_940" data-name="Group 940" transform="translate(5.478 7.908)">
        <path id="Path_1333" data-name="Path 1333" d="M0-14.18c.533-.405,1.094-.773,1.649-1.15a3.376,3.376,0,0,1,1.336.615c-.566.371-1.124.754-1.686,1.13C.87-13.794.437-13.99,0-14.18" transform="translate(0 15.33)" fill="#7c9b61"/>
      </g>
      <g id="Group_941" data-name="Group 941" transform="translate(3.919 9.058)">
        <path id="Path_1334" data-name="Path 1334" d="M0-14.9c.5-.429,1.028-.821,1.56-1.208.437.19.87.386,1.3.595-.564.389-1.112.8-1.661,1.211A11.343,11.343,0,0,1,0-14.9" transform="translate(0 16.11)" fill="#849f6a"/>
      </g>
      <g id="Group_942" data-name="Group 942" transform="translate(6.497 10.022)">
        <path id="Path_1335" data-name="Path 1335" d="M-136.441-38.368a12.567,12.567,0,0,1-.9,1.467,15.519,15.519,0,0,1-2.254,2.116c-.818.641-1.676,1.227-2.495,1.865-.545.414-1.091.827-1.594,1.292a11.852,11.852,0,0,0-1.527,1.566,7.626,7.626,0,0,0-1.369,2.493,7.364,7.364,0,0,0-.263,2.926,3.342,3.342,0,0,0,.275.8,13.225,13.225,0,0,0,1.287,2.307c-.118-.4-.268-.786-.37-1.189a7.873,7.873,0,0,1-.061-4.282,7.715,7.715,0,0,1,1.421-2.646,17.47,17.47,0,0,1,1.771-1.8c.515-.381,1.01-.815,1.533-1.2.767-.554,1.527-1.118,2.271-1.7a12.188,12.188,0,0,0,2.279-2.159,4.633,4.633,0,0,0,.7-1.073c.05-.135.16-.3.067-.438a3.91,3.91,0,0,0-.772-.35m1.149-3.112a5.591,5.591,0,0,1,.091,3.064,6.5,6.5,0,0,1-1.734,2.785c-1.706,1.7-3.816,2.917-5.623,4.5a9,9,0,0,0-2.972,4.217,8.478,8.478,0,0,0,.461,5.344c.211.561.464,1.1.728,1.641a18.143,18.143,0,0,1-2.259-3.5,7.71,7.71,0,0,1-.773-4.9,8.637,8.637,0,0,1,2.682-4.332c1.987-1.9,4.362-3.328,6.463-5.093a9.259,9.259,0,0,0,2.937-3.724" transform="translate(147.506 41.48)" fill="#1a85c7"/>
      </g>
      <g id="Group_943" data-name="Group 943" transform="translate(2.099 10.266)">
        <path id="Path_1336" data-name="Path 1336" d="M0-21.071A17.984,17.984,0,0,1,1.82-22.78a11.344,11.344,0,0,0,1.2.6,22.417,22.417,0,0,0-1.911,1.647l-.016-.008c-.36-.183-.722-.363-1.091-.528" transform="translate(0 22.78)" fill="#8ba371"/>
      </g>
      <g id="Group_944" data-name="Group 944" transform="translate(0.533 11.975)">
        <path id="Path_1337" data-name="Path 1337" d="M-9.231-12.432a6.861,6.861,0,0,1,.817-1.008c.369.165.731.345,1.091.528A13.01,13.01,0,0,0-9.98-9.337a11.755,11.755,0,0,1,.749-3.094" transform="translate(9.98 13.44)" fill="#94ab7c"/>
      </g>
      <g id="Group_945" data-name="Group 945" transform="translate(16.665 13.133)">
        <path id="Path_1338" data-name="Path 1338" d="M-11.063,0a3.91,3.91,0,0,1,.772.35c.093.139-.017.3-.067.438a4.633,4.633,0,0,1-.7,1.073q-.448-.207-.9-.394A12.568,12.568,0,0,0-11.063,0" transform="translate(11.96)" fill="#318bcc"/>
      </g>
      <g id="Group_946" data-name="Group 946" transform="translate(14.411 14.6)">
        <path id="Path_1339" data-name="Path 1339" d="M0-26.094A15.519,15.519,0,0,0,2.254-28.21q.457.187.9.394A12.189,12.189,0,0,1,.88-25.657,5.928,5.928,0,0,0,0-26.094" transform="translate(0 28.21)" fill="#4391ce"/>
      </g>
      <g id="Group_947" data-name="Group 947" transform="translate(11.916 16.716)">
        <path id="Path_1340" data-name="Path 1340" d="M0-23c.819-.638,1.677-1.224,2.495-1.865a5.928,5.928,0,0,1,.88.437c-.744.585-1.5,1.149-2.271,1.7A4,4,0,0,0,0-23" transform="translate(0 24.86)" fill="#5296d1"/>
      </g>
      <g id="Group_948" data-name="Group 948" transform="translate(10.322 18.581)">
        <path id="Path_1341" data-name="Path 1341" d="M0-15.938c.5-.465,1.049-.878,1.594-1.292a4,4,0,0,1,1.1.275c-.523.382-1.017.815-1.533,1.2A9.418,9.418,0,0,0,0-15.938" transform="translate(0 17.23)" fill="#5f9bd2"/>
      </g>
      <g id="Group_949" data-name="Group 949" transform="translate(8.795 19.873)">
        <path id="Path_1342" data-name="Path 1342" d="M0-19.3A11.853,11.853,0,0,1,1.527-20.87a9.418,9.418,0,0,1,1.165.179A17.472,17.472,0,0,0,.92-18.9,9.784,9.784,0,0,0,0-19.3" transform="translate(0 20.87)" fill="#689fd5"/>
      </g>
      <g id="Group_950" data-name="Group 950" transform="translate(7.426 21.439)">
        <path id="Path_1343" data-name="Path 1343" d="M-16.881,0a9.784,9.784,0,0,1,.92.409,7.715,7.715,0,0,0-1.421,2.646,1.95,1.95,0,0,0-.869-.562A7.626,7.626,0,0,1-16.881,0" transform="translate(18.25)" fill="#74a6d9"/>
      </g>
      <g id="Group_951" data-name="Group 951" transform="translate(7.119 23.932)">
        <path id="Path_1344" data-name="Path 1344" d="M-3.8,0a1.95,1.95,0,0,1,.869.562,7.872,7.872,0,0,0,.061,4.282c.1.4.252.791.37,1.189A13.224,13.224,0,0,1-3.784,3.726a3.342,3.342,0,0,1-.275-.8A7.364,7.364,0,0,1-3.8,0" transform="translate(4.104)" fill="#84addd"/>
      </g>
    </g>
  </g>
</svg>
